<?xml version="1.0" encoding="iso-8859-1"?><svg xmlns="http://www.w3.org/2000/svg" viewBox="0 0 465 465"><defs><style>.cls-1{fill:#232020;stroke:#000;}.cls-1,.cls-21,.cls-22{stroke-miterlimit:10;}.cls-2,.cls-22{fill:#fedb45;}.cls-3{fill:#231f20;}.cls-4{fill:#636464;}.cls-21,.cls-5{fill:#fff;}.cls-6{fill:#ababab;}.cls-7{fill:#9aa3a8;}.cls-8{fill:#ccbe38;}.cls-9{fill:#63421a;}.cls-10{fill:#f3fafe;}.cls-11{opacity:0.2;}.cls-12{fill:#081a19;}.cls-13{fill:#3f4649;}.cls-14{fill:#3e4f55;}.cls-15{fill:#cccccb;}.cls-16,.cls-19{opacity:0.5;}.cls-17{fill:#131d1c;}.cls-18{fill:#232323;}.cls-19{fill:#4f4f4f;isolation:isolate;}.cls-20{fill:#f4f4f4;stroke-linecap:round;stroke-linejoin:round;}.cls-20,.cls-21,.cls-22{stroke:#231f20;stroke-width:0.75px;}</style></defs><g id="Layer_2" data-name="Layer 2"><g id="Layer_1-2" data-name="Layer 1"><circle class="cls-1" cx="232.5" cy="232.5" r="232"/><path class="cls-2" d="M229.76,453.17c-3.64-1-89.68-27.1-164-203-16.94-40.1-32.13-85.46-45.18-134.87L19,109.42l4.43-4.15c4.14-3.86,102.42-94.61,199.19-94.61h19.81c96.7,0,195,90.79,199.18,94.61l4.45,4.15-1.56,5.86c-12.6,47.77-27.24,91.79-43.48,130.87-74.8,179.53-162.12,206-165.76,207l-2.71.77Z"/><path class="cls-3" d="M222.6,20.83h19.88c93.81,0,192.18,91.87,192.18,91.87-13.3,50.36-27.92,93.19-43.05,129.55C318,419.3,232.51,443.39,232.51,443.39s-84.12-23.74-157.39-197.2C59.42,209,44.2,164.89,30.41,112.7c0,0,98.38-91.87,192.19-91.87M222.6.5C121.94.5,20.8,93.86,16.54,97.84l-8.89,8.35,3.11,11.75c13.15,49.8,28.52,95.62,45.68,136.17,17.23,40.81,36.58,77,57.45,107.54,17,24.84,35,46.07,53.72,63.17,32.8,30,56.79,37.39,59.42,38.12l5.52,1.56,5.53-1.56c2.71-.74,27-8.22,60.15-38.78,19-17.41,37.15-39.08,54.28-64.42C373.58,328.58,393,291.68,410.35,250c16.43-39.5,31.17-84,43.93-132.17l3.07-11.63-8.88-8.29c-4.25-4-105.38-97.4-206-97.4H222.6Z"/><path class="cls-3" d="M396.55,239.51C320.57,422.14,232.48,447,232.48,447s-86.72-24.48-162.35-203.4c70.05-25.74,200.06-38.24,255.71-30.68A170.29,170.29,0,0,1,396.55,239.51Z"/><path class="cls-3" d="M212.82,336.78c-13.55,0-82.55-3.24-121.51-66.2A16.42,16.42,0,0,1,89,267.21c-1.28-2.36-2.5-4.82-3.73-7.49a2,2,0,0,0-.27-.53,19.76,19.76,0,0,1-.9-2.06,17.18,17.18,0,0,1-2.87.23h-.8a17.2,17.2,0,0,1-15.76-13.77c-3-14.15-2.35-25.45,0-34.27a17,17,0,0,1-2.35-15.73,43.75,43.75,0,0,1,6.77-12.19q3.23-4.17,6.26-7.67a64.5,64.5,0,0,1-9.15-19,17,17,0,0,1,1.75-13.87C64.73,128.7,64.28,112.72,72,94.08a17,17,0,0,1,4.67-6.47c.19-2.6.41-5,.61-7.25,1.06-11.65,1.22-15.63-2.37-21.85A55.15,55.15,0,0,0,68.63,50a17,17,0,0,1,7.48-27.21,30.82,30.82,0,0,1,9.2-1.35H86c6.6,0,16.9,1.76,28.81,9.82,1.54,1,3.13,2.21,4.72,3.5a16.66,16.66,0,0,1,3.3-.42,15.44,15.44,0,0,1,1.67.08c4.52.44,25.74,4.37,57,38.78,15-9.69,20.83-10,23.46-10.08h.77a15.74,15.74,0,0,1,2.91.25c10.92-6.62,26-13.78,40.12-13.78h1.56a17.13,17.13,0,0,1,16.26,13.55,17.49,17.49,0,0,1,.07,6.49c4.35.83,8.93,1.89,13.93,3.2q3.11.81,5.7,1.76a261.56,261.56,0,0,1,25.37-19c13.66-8.59,18.88-16.53,19-16.61A17,17,0,0,1,349,31.67a54.31,54.31,0,0,1,12.46-10.56A17,17,0,0,1,386.08,39.8c-1.35,5.94-2.81,18.19-.82,25.58a80.81,80.81,0,0,0,5.5,13.55c3.13,6.57,6.63,13.86,7.05,22a16.9,16.9,0,0,1,4.39,6.14c3.79,9.09,5.1,23.15-2.16,35.39a16.85,16.85,0,0,1,.48,9.28c-1.36,5.84-4.07,14.91-9,22.1a56.64,56.64,0,0,1,5.87,6.42c.65.86,1.19,1.62,1.72,2.39a43.55,43.55,0,0,1,3.89,7c.4.9.78,1.85,1.14,2.8a17,17,0,0,1-1.75,14.9l-.61.88c2.33,8.82,3,20.11,0,34.26a17,17,0,0,1-14.55,13.26,17.62,17.62,0,0,1-2.05.12,16.4,16.4,0,0,1-2.71-.2c-12.64,29.49-46.21,77.53-131,81.06H215.28C214.8,336.75,214,336.78,212.82,336.78Z"/><path class="cls-4" d="M251.37,92.07S235.79,97,235.22,105.62s-19.71,3.21-16.39-.57,15.93-12.82,18.32-13.55S251.37,92.07,251.37,92.07Z"/><path class="cls-5" d="M375.06,196.06s.21.15.6.46c3,2.38,15.53,14.24,9.49,42.38a1.55,1.55,0,0,1-.08-.23c-.8-1.91-6.78-16.39-10.25-18.33a101.19,101.19,0,0,1-7.41,27.26c-11.7,28.35-41.58,69-116.72,72.16H215s-72.95,3.61-110.7-60.6c-1.36-2.22-2.58-4.5-3.77-6.87l-.51-1v-.09l.48-42v-.24l.15-12.1v-2.72l.19-16.7v-4.47s-12.19-2.29-18.53-23.13c0,0,8.23,7.1,12.35,6.87,0,0-21.3-21.52-7.08-56.11,0,0,.21,39.85,14.18,44.43A30.88,30.88,0,0,1,120,161.26l.27.61h0l.14-.14s0-.08.11-.12c1-1.27,5.08-7-1.17-13.25s-20-4.69-24.73-28.06V120a81.25,81.25,0,0,1-1.35-11c-2.06-35.23,10.08-44.65-11.9-70.09a14.31,14.31,0,0,1,4.07-.48c4.06-.07,11.07,1,19.78,6.89,14.2,9.62,23.82,26.13,23.82,51.49s-8,38.27,4.36,41.45,16.36-4.25,16.52-4.45l-.55.21h0c-2.86,1-14.77,4.33-13.16-12.84s9.65-35.27-6.14-60a96.45,96.45,0,0,0-7.25-9.71s24.73,2.41,63.55,54.63c0,0,3.08.54,2.12-6.23A49.76,49.76,0,0,0,186,90.69S201,80.39,205.75,80.18l-1,5L204.36,87S230.72,66,249.72,66.71l-.8.44c-3.3,1.9-15.74,9.58-21.52,20.5a3.27,3.27,0,0,1,.82-.88h0c3.22-2.43,12.13-2.22,15-2.27a96.88,96.88,0,0,1,18.61,1.68c4.85.85,9.66,2,14.4,3.22.79.21,8.4,2.71,7.8,3.3A24.43,24.43,0,0,0,280,98.92c-.88,1.77-1.64,3.48-2.11,4.68-.37.86-.59,1.45-.63,1.6.1-.08.52-.49,1.22-1.1V104c5.42-5,26.75-24.12,42.22-33.87,17.31-10.84,23.88-21.32,24.27-22-.21.72-4.06,12.48-8.68,24-3.95,9.77-5.42,39.77-4.57,56.42a6.08,6.08,0,0,1-5.9,6.26,6.22,6.22,0,0,1-2.41-.42,23.31,23.31,0,0,1-7.26-4.74l-.08-.08a18,18,0,0,1,1.46,3.37c2,4,4.41,7.33,8.58,9.15a14.78,14.78,0,0,0,10.53.58c2.95-1.18,4.43-4.46,5.08-7.38,2-9.4-3.74-38.66,1.53-59.54.12-.47.24-.92.37-1.36a78.13,78.13,0,0,1,15-28c4.53-5.55,8.79-9.27,11-10.46,0,0-4.59,19.46-.7,33.88s13.05,25,11.91,34.37-9.62,15.79-21.07,26.56c-7.63,7.16-11.08,11.17-12.28,15.35a17.49,17.49,0,0,0-.32,6.87h0c.42-.62,7.38-10.4,24-20.61,16.41-10.08,15.48-18.06,15.38-18.74.35.86,5.16,13.16-3,22.88-8.48,10.06-15.82,14.9-15.82,17.41,0,0,11-.92,16.26-6,0,0-3.64,15.82-9.62,19.71s-17.11,4.59-17.11,4.59,1.64.62,4.16,1.81c5.79,2.71,16.26,8.49,22.62,16.66a27.61,27.61,0,0,1,4.14,7.4C387.89,198,380,194.92,375.06,196.06Z"/><path class="cls-6" d="M375,196.06a5.84,5.84,0,0,1,.64.47,59.31,59.31,0,0,0-11.29-.81,103.13,103.13,0,0,1,19.55-5,26.34,26.34,0,0,1,4.16,7.4C387.89,198.05,380,194.93,375,196.06Z"/><path class="cls-6" d="M385,238.69c-.78-1.93-6.77-16.43-10.22-18.35a101.19,101.19,0,0,1-7.41,27.26c4-26.79-1.64-39.85-1.64-39.85C380,211.88,384,231.42,385,238.69Z"/><path class="cls-6" d="M102.51,99.17s-1.36,7.48.29,10.84c0,0-2.79,9.89,2.38,18a51.21,51.21,0,0,1-10.53-7.68A81.3,81.3,0,0,1,93.29,109c-2.06-35.23,10.08-44.71-11.91-70.09a14.33,14.33,0,0,1,4.07-.5,24.73,24.73,0,0,1,18.17,17.45c6.19,19.59,0,37.45,2.41,44.32Z"/><path class="cls-6" d="M335.19,177.86c-28.7-21.88-72.37.78-72.83,1a56.5,56.5,0,0,1,11.79-13.81h0a55,55,0,0,1,30.25-13.32c12.38-1.11,19.92,7.4,23,11.88a22.48,22.48,0,0,1,1.61,2.71c1.14-3.32-.23-10.31-.23-10.31C338.51,161.58,335.19,177.86,335.19,177.86Z"/><path class="cls-3" d="M327.44,163.63c-2.78-1.35-10.31-4.43-24.62-5.42-12.41-.91-22.93,3.69-28.63,6.91a54.94,54.94,0,0,1,30.21-13.37C316.76,150.64,324.31,159.15,327.44,163.63Z"/><path class="cls-7" d="M339.85,172.32s.53,6.26-2.06,8.7-4.06,5.35-2,7.33,7.49,1.53,7.41-5A21.11,21.11,0,0,0,339.85,172.32Z"/><path class="cls-3" d="M319.54,236.91c-5.8,6.41-20.77,14.81-34.51,13.55a18.75,18.75,0,0,1-15.86-11.11,25.9,25.9,0,0,1-1.73-4.82,24.1,24.1,0,0,1-.73-4.84s-.61,3.06-1.36,13.14c0,0-6.77-26.88,15.11-41.54s38.94.16,40.92,6.57S325.34,230.5,319.54,236.91Z"/><path class="cls-8" d="M312.37,229.5c-6.11,10.84-18.18,17.25-25.66,17.86-5.61.46-13.8-5.1-17.54-7.9a25.74,25.74,0,0,1-1.73-4.83c.11-.69.26-1.47.46-2.34a35.7,35.7,0,0,1,10-17c11.14-11,26.87-13.55,30.38-11.61,1.86,1.05,4.62,5.19,5.89,10.44A20.91,20.91,0,0,1,312.37,229.5Z"/><path class="cls-9" d="M299.23,223c0,7-3.89,12.68-8.7,12.68s-8.7-5.68-8.7-12.68,3.89-12.67,8.7-12.67S299.23,216,299.23,223Z"/><path class="cls-10" d="M295.72,218.66a3.51,3.51,0,1,1-3.51-3.59,3.55,3.55,0,0,1,3.51,3.59Z"/><g class="cls-11"><path class="cls-12" d="M314.13,214.06c-4.63-.5-16.84-1.35-26.65,2.54-9.49,3.77-16.78,12-19.58,15.62a35.7,35.7,0,0,1,10-17c11.14-11,26.87-13.55,30.38-11.61C310.1,204.67,312.86,208.81,314.13,214.06Z"/></g><path class="cls-6" d="M208.82,207.9a11,11,0,0,1-5.27,2.25,17.44,17.44,0,0,1-11.21-2.25c-10.38-5.5-22-25.2-29.93-30.54s-18.78-6-18.78-6a38.49,38.49,0,0,1,9-1.36c24.08-.69,40.9,22.33,46.75,30.52C205.7,209.4,208.62,208,208.82,207.9Z"/><path class="cls-3" d="M208.82,207.9a11,11,0,0,1-5.27,2.25c-4.63-.85-7.6-4.76-19-18.44C172.28,177,158.92,171.77,152.64,170c24.08-.69,40.9,22.33,46.75,30.51C205.7,209.4,208.62,208,208.82,207.9Z"/><path class="cls-3" d="M196.45,244.4a34.81,34.81,0,0,1-20.77,6.78,39.19,39.19,0,0,1-10.22-1.36c-10.84-3-18.21-11-21.19-23.14A53.37,53.37,0,0,1,142.91,213l-2-.56.63-3.43a23.35,23.35,0,0,1,5-11,21.88,21.88,0,0,0-4.27-1.21L126,194.05l15.77-4.77a24.34,24.34,0,0,1,6.89-1c20.18,0,42.29,22.45,44.71,25,4.78,5,7.47,7.52,8.86,7.52a5.22,5.22,0,0,0,1.36-.28c1.42-.46,3.24-4.07,3.85-6.27l3.44-12.59,3.94,12.44c3,9.37-1.35,15.44-5.42,18.32a17.46,17.46,0,0,1-5,10.71l-11.28,10.94Z"/><path class="cls-3" d="M148.7,192.17c16,0,34.93,16.49,42,23.82,6.21,6.48,8.74,8.71,11.64,8.71a8.51,8.51,0,0,0,2.56-.46c4.35-1.35,6.41-8.94,6.41-8.94,3.51,11.07-5.8,15-5.8,15,1.08,5.5-3.65,10.08-3.65,10.08a12.51,12.51,0,0,0,.15-7s-9.12,14-26.33,14a34.85,34.85,0,0,1-9.2-1.27c-23.15-6.3-19.6-36-19.6-36l-1.6-.46c1.6-8.82,7.1-11.91,7.1-11.91C151,194.35,142.9,193,142.9,193a19.89,19.89,0,0,1,5.79-.8Z"/><path class="cls-8" d="M201.82,232c-4.58,9.93-20.93,12.37-29.81,10.84s-16.35-9.49-19.1-21.68,9.94-20.92,9.94-20.92c2.56.61,8.26,4.82,14.52,10,3,2.49,6.19,5.23,9.2,7.87C194.78,225.43,201.82,232,201.82,232Z"/><path class="cls-13" d="M187.57,226c-.69,7-7.1,8.36-10.31,6.65A12.44,12.44,0,0,1,171.54,217c1.63-4.73,4.07-6.3,5.86-6.78,3,2.5,6.19,5.23,9.2,7.88l.41.47S188.25,219,187.57,226Z"/><circle class="cls-5" cx="182.93" cy="220.62" r="4.17"/><path class="cls-14" d="M211,240.34s7.33-10.08,14.66-8.25,6.87-2.29,2.29-3.2S215.24,229.73,211,240.34Z"/><path class="cls-14" d="M211.27,249.28s3.68-10.23,10.08-11.61,11.92,2,11.92,3.82-2.29,1.68-6.26.31S216.33,242.86,211.27,249.28Z"/><path class="cls-15" d="M252.4,271.65s3.43-8.71,1.71-13.63a13.28,13.28,0,0,1-5.72,8.59C243.58,269.47,252.4,271.65,252.4,271.65Z"/><g class="cls-16"><path class="cls-14" d="M231.73,242.41s-7.33,1.83-8.55,8.85a33.56,33.56,0,0,0,.46,13.13l-7,2.91s-7.8-5-7-10.08S223.1,238.59,231.73,242.41Z"/></g><path class="cls-3" d="M269.68,304.38a5.44,5.44,0,0,1-3.79-1.47,20.19,20.19,0,0,0-2.91-.15c-1.2,0-2.71,0-4.48.14h-1.36c-6.86,0-14.13-2.51-21.16-4.93-2.89-1-5.89-2-8.81-2.87a201.47,201.47,0,0,0-22.83-4.35c-5.19-.79-9.65-1.48-12.58-2.17-6.54-1.57-12.19-8.4-15.8-14.18a6.43,6.43,0,0,1-4.17-2.8,5.17,5.17,0,0,1-.68-4.53c1-3.22,5.24-5.31,8.59-6.49a8,8,0,0,1,2.6-.42c3.78,0,8.53,2.65,9,6.07a4.82,4.82,0,0,1-2.86,4.92c.21.61.53,1.36,1,2.35,2.15,4.87,13.24,6.77,20.57,7.94l.81.13c8.47,1.36,17.24,2.87,19.26,3h.84a5.36,5.36,0,0,1,1-.09,5.14,5.14,0,0,1,3.61,1.57A79.8,79.8,0,0,0,255.56,293a22.51,22.51,0,0,0,3.84.38,9.14,9.14,0,0,0,2.8-.37,4.81,4.81,0,0,1-.68-5.18,4,4,0,0,1,3.52-2.06,11.92,11.92,0,0,1,10.37,9.82,8.13,8.13,0,0,1-1.36,6.77A5.65,5.65,0,0,1,269.68,304.38Z"/><path class="cls-5" d="M182.29,264c2.38,0,5,1.76,5.16,2.71s-3,1.68-3,1.68h0c-.23,0-1.35.28,1.36,6.64,3.09,7,15.35,8.82,24.28,10.31s17.4,2.9,19.62,3.05h.59c.79,0,1.17-.14,1.5-.14s.57.14,1.12.65c1.22,1.14,12.75,6.18,21.91,7.78a25.35,25.35,0,0,0,4.52.43c5.42,0,7.07-2.34,7.31-3.33.32-1.22-2.6-4.27-1.68-4.27a8.26,8.26,0,0,1,6.58,6.56c.52,3.43-.82,4.38-1.93,4.38a1.7,1.7,0,0,1-1.14-.41c-.59-.59-.92-1.2-5.55-1.2-1.22,0-2.71,0-4.68.14h-1.18c-8.87,0-18.82-4.74-28.9-7.66-10.53-3.05-28.55-4.9-35.58-6.58s-13.28-12.19-14-13.42-2.29,0-3.67-2,3.44-4.26,6-5.19a4.09,4.09,0,0,1,1.35-.2Zm0-7.7a12,12,0,0,0-3.89.65,30.51,30.51,0,0,0-5,2.29,12.21,12.21,0,0,0-6,6.64,8.93,8.93,0,0,0,1.18,7.89,10.24,10.24,0,0,0,4.88,3.9c4.06,6.11,10.06,12.89,17.35,14.63,3.08.74,7.62,1.43,12.89,2.24a206.42,206.42,0,0,1,22.34,4.23c2.84.82,5.78,1.84,8.64,2.82,7.33,2.53,14.9,5.15,22.41,5.15h1.57c1.71-.09,3.14-.13,4.28-.13h1.44a9.48,9.48,0,0,0,12.48-1.73c1.49-1.74,3.09-4.87,2.3-9.93a15.45,15.45,0,0,0-6.34-10.18,14.76,14.76,0,0,0-7.83-2.9,7.9,7.9,0,0,0-7.88,7.44,4.7,4.7,0,0,1-.94-.15,77.56,77.56,0,0,1-18.49-6.26,8.94,8.94,0,0,0-5.88-2.28,11.43,11.43,0,0,0-1.54.13h0c-1.84-.13-11.29-1.71-18.88-3l-.84-.14a83.23,83.23,0,0,1-12.67-2.77,11.87,11.87,0,0,1-4.78-2.59,8.42,8.42,0,0,0,2-6.56,10.17,10.17,0,0,0-5.52-7.39,14.85,14.85,0,0,0-7.27-2Z"/><path class="cls-3" d="M263.56,270.61c1.36-.38,2.71-.73,4.07-1.06l2-.48,2-.47c1.36-.32,2.71-.58,4.07-.88s2.71-.54,4.06-.8q8.13-1.55,16.26-2.46l4.07-.44,4.06-.31c.68,0,1.36-.11,2.05-.13l2.06-.1,2.05-.08h8.22l2.06.08,2.05.08a4,4,0,0,1,1,.09l1,.08,4.07.38-4.07-.21h-1a8.85,8.85,0,0,0-1,0H316.5l-4.06.18c-.68,0-1.36.08-2.05.13l-2,.18-2.05.16a17.77,17.77,0,0,0-2,.23c-1.35.15-2.71.3-4.06.48l-4.07.58q-8.13,1.26-16,3.1c-1.36.33-2.71.63-4,1s-2.71.65-4,1l-2,.54-2,.57c-1.35.38-2.6.78-3.87,1.18Z"/><rect class="cls-3" x="227.07" y="282.51" width="10.85" height="2.07" transform="translate(-63.66 499.76) rotate(-86.78)"/><path class="cls-3" d="M269.08,275.14c5.61-.51,11.2-.84,16.81-1.07s11.22-.33,16.83-.26q4.23,0,8.42.24c2.8.12,5.61.33,8.4.58,1.35.13,2.79.29,4.19.44s2.77.36,4.16.59c2.71.45,5.51,1,8.22,1.71a76.83,76.83,0,0,0-8.26-1.35c-1.36-.18-2.8-.3-4.18-.42s-2.79-.22-4.18-.27q-4.2-.24-8.38-.25t-8.37.1c-5.59.15-11.15.47-16.72.9s-11.13,1-16.64,1.73Z"/><path class="cls-3" d="M262.76,280.85c2.28,0,4.53,0,6.78.09s4.51.14,6.77.27c4.5.27,9,.63,13.47,1.18,2.24.27,4.46.58,6.68,1s4.45.77,6.64,1.27a72.23,72.23,0,0,1,12.86,4,72,72,0,0,0-13-3.33c-2.2-.38-4.42-.68-6.64-.93s-4.45-.46-6.68-.63c-4.46-.32-8.93-.47-13.4-.5s-8.95,0-13.36.3Z"/><path class="cls-3" d="M204.59,278.16c-.43-.19-.92-.38-1.35-.56l-1.44-.51-1.46-.5-1.46-.48c-1-.3-2-.61-3-.88s-2-.55-3-.79-2-.51-3-.71l-1.51-.34-.76-.16-.76-.15-3.05-.57-3.08-.49-.75-.12-.78-.1-1.54-.19c-1-.12-2.06-.27-3.09-.35l-3.1-.28c-1-.09-2.08-.13-3.12-.18-2.07-.15-4.15-.15-6.23-.18H159l-3.12.08,3.11-.24c1-.07,2.08-.18,3.13-.2,2.08,0,4.17-.19,6.26-.15h3.13l3.13.12c1,0,2.08.11,3.13.18l1.57.12h.77l.79.08,3.13.33,3.11.4.78.11.77.14,1.56.24c1,.16,2.07.37,3.1.57s2.06.42,3.08.65,2,.47,3.07.73l1.53.39,1.52.44,1.53.46,1.53.51Z"/><path class="cls-3" d="M199,270.15c-1.18-.56-2.4-1.11-3.62-1.64s-2.47-1.06-3.7-1.56L188,265.46l-3.75-1.35c-5-1.85-10.15-3.47-15.31-4.92l-1.94-.53c-.64-.19-1.35-.37-1.94-.52l-3.9-1c-.65-.16-1.35-.3-2-.44l-2-.42-2-.42c-.65-.14-1.35-.24-2-.36l-4-.71-4.07-.55-2-.29-2-.19-4.07-.38,4.07.22,2,.11,2,.19,4.07.39,4.06.54c.66.1,1.36.18,2,.29l2,.34,2,.35c.66.11,1.35.22,2,.35l4,.82c.67.12,1.36.28,2,.43l2,.46c5.25,1.25,10.46,2.71,15.6,4.31l3.85,1.27c1.36.45,2.56.88,3.84,1.36s2.55.93,3.81,1.42,2.5,1,3.78,1.55Z"/><path class="cls-3" d="M206.84,267.44l-.76-.6-.8-.59c-.52-.4-1.09-.76-1.64-1.15s-1.13-.74-1.69-1.1l-.85-.54-.88-.52-1.75-1-1.79-1c-1.18-.67-2.4-1.25-3.62-1.84A124.65,124.65,0,0,0,177.91,253l-3.9-1.2-1-.3c-.32-.1-.65-.17-1-.27l-2-.51-2-.52c-.67-.16-1.36-.33-2-.47l-4.06-.85c-.67-.14-1.36-.3-2-.41l-2-.34-4.06-.68c-.68-.12-1.36-.19-2-.27l-2-.24-4.07-.5,4.07.32,2.06.16a13.07,13.07,0,0,1,2,.21l4.07.5,2,.26c.68.09,1.36.23,2,.34l4.06.69c.69.11,1.36.25,2,.4l2.08.46,2,.44c.33.07.67.13,1,.23l1,.26,4.07,1a126.62,126.62,0,0,1,15.59,5.53c1.26.57,2.54,1.09,3.77,1.73l1.87.91,1.83,1,.92.49.91.52c.59.36,1.2.68,1.79,1.08s1.19.71,1.77,1.12,1.15.79,1.76,1.25Z"/><path class="cls-17" d="M349.74,120.47s12.59-5.94,16.83-17.18C366.57,103.29,368.75,122.45,349.74,120.47Z"/><path class="cls-17" d="M350.23,125.43s7.56.08,10.08-4C360.31,121.46,356,130.79,350.23,125.43Z"/><path class="cls-18" d="M117.84,110.26c-.39-.26-14.17-7.88-15.14-18.27-.91-9.59,2-20.13,2.16-20.58l1.71-5.76,3.51,4.9c.16.23,4.07,5.8,3.29,15.72C112.61,95.35,117.84,110.26,117.84,110.26Z"/><path class="cls-18" d="M100.65,96s3.21,17.41,18.55,25.2C119.2,121.16,101.33,122.76,100.65,96Z"/><path class="cls-18" d="M100.19,114.53s5.73,10.29,16.49,13.27C116.68,127.87,105.69,133.29,100.19,114.53Z"/><path class="cls-3" d="M234.19,264.09s-7.79-4.73-16.05-3.36,3.68,16.18,12.2,18.32,15.27-2.29,20-5.19.15-10.38-6.26-10.38A64.08,64.08,0,0,0,234.19,264.09Z"/><path class="cls-19" d="M380.77,104.23c-1.15,9.37-9.62,15.78-21.07,26.56-7.63,7.15-11.08,11.16-12.27,15.35-.22-6,19.41-30.69,21.34-35.95S365.15,94.77,362,86.27s-1.69-30.89-1.69-30.89c-1.94,1-11.09,12.11-16.75,19.1a78.24,78.24,0,0,1,15.06-28.06c4.53-5.55,8.79-9.27,11-10.46,0,0-4.59,19.46-.7,33.88S381.91,94.82,380.77,104.23Z"/><path class="cls-17" d="M360.77,69.61a38.67,38.67,0,0,0-4.87,19.48c.31,11.15.77,17.26-1.83,21.38,0,0,9.16-5.34,10.84-13.44S360.16,72.91,360.77,69.61Z"/><path class="cls-5" d="M112.3,178.18v81h-8.44c-1.25-2.34-2.37-4.63-3.39-6.87l-.51-1.15q-.55-1.23-1-2.4c-3.66-24.57.75-37.59,1.51-39.58a1.17,1.17,0,0,0,.1-.26h-.1c-14.1,4.26-18.11,23.66-19.14,30.9a1.19,1.19,0,0,0-.08.2c-6.07-28.12,6.45-40,9.49-42.36a56.63,56.63,0,0,1,9.9-.84H102l-1.36-.47a102,102,0,0,0-17.38-4.41l-.82-.1c4.57-5.9,12.89-15.78,18.46-19,0,0,10.84-7.63,19-10a16.53,16.53,0,0,1,3.12-.68C128.25,161.65,112.3,178.18,112.3,178.18Z"/><path class="cls-6" d="M90.68,197.66a7.36,7.36,0,0,1,.63-.47c-5-1.12-12.84,2-13.06,2.06a26.79,26.79,0,0,1,4.16-7.41,102.79,102.79,0,0,1,19.55,5A57.56,57.56,0,0,0,90.68,197.66Z"/><path class="cls-6" d="M100.58,208.88s-5.64,13.06-1.64,39.86a101.56,101.56,0,0,1-7.41-27.26c-3.41,1.92-9.48,16.42-10.22,18.33C82.34,232.56,86.39,213.05,100.58,208.88Z"/><path class="cls-3" d="M293.86,195.62s11.18-1.79,18.66,0,14.66,7.59,16.26,9.73L310.23,202Z"/><path class="cls-20" d="M309.21,323.16s-24.39,34.43-31.76,35.47S240,333.4,240,333.4,290.85,332.26,309.21,323.16Z"/><path class="cls-21" d="M275,396.17s15.52-27.1,15.17-31.06-11.05,5.23-14,4.59-11.86-5.61-11.86-5.61S270.24,404.66,275,396.17Z"/><path class="cls-20" d="M157.32,323.16s24.39,34.43,31.76,35.47,37.45-25.23,37.45-25.23S175.68,332.26,157.32,323.16Z"/><path class="cls-21" d="M191.53,395.06S176,368,176.35,364s11.05,5.23,14,4.6S202.22,363,202.22,363,196.29,403.58,191.53,395.06Z"/><path class="cls-22" d="M251.56,374.84c-7.13-2.29-15.58.93-17.1,4.54-1.28,3.05-2.54,3.34-2.9,3.37s-1.64-.32-2.92-3.37c-1.5-3.61-10-6.78-17.08-4.54s-10.12,25.82-2.63,38.14c7,11.47,20.64,17.09,22.51,17.82v.1h.23v-.1c1.88-.73,15.53-6.35,22.5-17.82C261.73,400.66,258.74,377.2,251.56,374.84Z"/><path class="cls-22" d="M252.2,359.27c-1.36-2.71-19.6-16.17-19.6-16.17l-.88-.58-.87.58s-18.19,13.55-19.59,16.17-4.42,10.69,3.25,11.27a149.71,149.71,0,0,0,17.21,0,149.89,149.89,0,0,0,17.22,0C256.61,370,253.59,361.94,252.2,359.27Z"/><path class="cls-6" d="M121.07,161.29l-.47.38c1-1.28,5.08-7-1.17-13.26s-20.05-4.68-24.73-28.06V120c1.83.6,4.35,1.19,4.35,1.19s1.22,10.84,8.47,14.41S132.05,152.26,121.07,161.29Z"/><path class="cls-6" d="M384,190.72a27.61,27.61,0,0,1,4.14,7.4c-4.81-7-24.39-13.89-32.83-20.25s-9.74-18.58-9-21.79c.25-1,.5-2.07.83-3.09.42-.62,7.38-10.4,24-20.61,16.41-10.08,15.48-18.06,15.38-18.74.35.86,5.16,13.16-3,22.88-8.48,10.06-15.82,14.9-15.82,17.41,0,0,11-.92,16.26-6,0,0-3.64,15.82-9.62,19.71s-17.11,4.59-17.11,4.59,1.64.62,4.16,1.81C367.13,176.8,377.58,182.55,384,190.72Z"/><path class="cls-6" d="M120.49,161.75a7.12,7.12,0,0,1-.68,1.12,11.59,11.59,0,0,1-2,2c-2.08,1.76-9.25,6.65-17,12.44a176.6,176.6,0,0,0-17.62,14.56l-.81-.1c4.56-5.9,12.88-15.78,18.45-19,0,0-12.19-2.29-18.53-23.14,0,0,8.23,7.11,12.35,6.87,0,0-21.3-21.51-7.08-56.11,0,0,.21,39.85,14.18,44.43a30.91,30.91,0,0,1,18.28,16.26l.27.61h0Z"/><path class="cls-6" d="M336.34,72.15c-3.94,9.77-5.42,39.77-4.56,56.43a6.08,6.08,0,0,1-8.41,5.89,23.31,23.31,0,0,1-7.26-4.74l-.08-.08h0a14.75,14.75,0,0,0,9.49-5.42c3.86-4.89-2.06-44.57-2.06-44.57-11.18,1.11-49.23,36.07-49.23,36.07l-1.78-20.87c-13.38-6.18-53.93-2.33-53.93-2.33-.34-4.22,8.31-12.6,8.84-13.11-27.29,9.08-36.89,38.15-42.29,30.84-13.46-18.53-43.63-39.3-44.62-40,4.45,8.13,4.28,32,.66,47.83-3.51,15.42,7.6,15.87,8.13,15.88h0c-2.86,1-14.77,4.33-13.16-12.84s9.79-35.27-6-60a96.45,96.45,0,0,0-7.25-9.71s24.73,2.41,63.55,54.63c0,0,3.08.54,2.12-6.23A49.76,49.76,0,0,0,186,90.69S201,80.39,205.75,80.18l-1,5L204.36,87S230.72,66,249.72,66.71l-.8.44c-3.3,1.9-15.74,9.58-21.52,20.5a3.27,3.27,0,0,1,.82-.88h0c3.22-2.43,12.13-2.22,15-2.27a96.88,96.88,0,0,1,18.61,1.68c4.85.85,9.66,2,14.4,3.22.79.21,8.4,2.71,7.8,3.3A24.43,24.43,0,0,0,280,98.92c-.88,1.77-1.64,3.48-2.11,4.68-.37.86-.59,1.45-.63,1.6.1-.08.52-.49,1.22-1.1V104c5.42-5,26.75-24.12,42.22-33.87,17.31-10.84,23.88-21.32,24.27-22C344.81,48.85,341,60.61,336.34,72.15Z"/></g></g></svg>